<?xml version="1.0" encoding="UTF-8" standalone="no"?>
<svg
   xmlns:serif="http://www.serif.com/"
   xmlns:dc="http://purl.org/dc/elements/1.1/"
   xmlns:cc="http://creativecommons.org/ns#"
   xmlns:rdf="http://www.w3.org/1999/02/22-rdf-syntax-ns#"
   xmlns:svg="http://www.w3.org/2000/svg"
   xmlns="http://www.w3.org/2000/svg"
   xmlns:sodipodi="http://sodipodi.sourceforge.net/DTD/sodipodi-0.dtd"
   xmlns:inkscape="http://www.inkscape.org/namespaces/inkscape"
   inkscape:version="1.0beta1 (32d4812, 2019-09-19)"
   sodipodi:docname="brightdigit-template.svg"
   id="svg27"
   style="fill-rule:evenodd;clip-rule:evenodd;stroke-linejoin:round;stroke-miterlimit:2;"
   xml:space="preserve"
   version="1.1"
   viewBox="0 0 411 411"
   height="100%"
   width="100%"><metadata
   id="metadata33">
  <rdf:RDF>
    <cc:Work
       rdf:about="">
      <dc:format>image/svg+xml</dc:format>
      <dc:type
         rdf:resource="http://purl.org/dc/dcmitype/StillImage" />
    </cc:Work>
  </rdf:RDF>
</metadata>
<defs
   id="defs31" />
<sodipodi:namedview
   inkscape:current-layer="g24"
   inkscape:window-maximized="0"
   inkscape:window-y="23"
   inkscape:window-x="0"
   inkscape:cy="560"
   inkscape:cx="400"
   inkscape:zoom="0.35"
   showgrid="false"
   id="namedview29"
   inkscape:window-height="670"
   inkscape:window-width="1280"
   inkscape:pageshadow="2"
   inkscape:pageopacity="0"
   guidetolerance="10"
   gridtolerance="10"
   objecttolerance="10"
   borderopacity="1"
   inkscape:document-rotation="0"
   bordercolor="#666666"
   pagecolor="#ffffff" />

    <g
   transform="matrix(2.91608,0,0,2.91608,61.6781,61.6786)"
   serif:id="Layer 3"
   id="Layer-3">
        <g
   id="g12"
   transform="matrix(1,0,0,1,25.2486,11.8122)">
            <path
   id="path10"
   style="fill:rgb(35,31,32);fill-rule:nonzero;"
   d="M0,37.584C3.252,40.836 6.712,43.074 10.379,44.296C14.832,45.766 18.504,45.057 21.394,42.167C24.284,39.277 25.148,35.781 23.989,31.68C23.035,28.24 20.995,24.957 17.867,21.829C11.756,15.718 6.038,13.273 0.714,14.495C-1.233,14.951 -3.015,15.986 -4.631,17.603C-7.489,20.462 -8.36,23.652 -7.241,27.174C-6.288,30.156 -3.988,33.513 -0.342,37.242L0,37.584ZM-8.686,-11.715C-8.364,-12.036 -8.049,-12.041 -7.738,-11.731C-7.427,-11.42 -7.66,-9.954 -8.438,-7.334C-9.214,-4.713 -9.665,-3.051 -9.789,-2.347C-10.225,-0.088 -10.576,2.252 -10.846,4.676C-11.716,12.672 -11.053,17.83 -8.856,20.15C-8.691,19.985 -8.551,19.742 -8.438,19.421C-8.323,19.1 -8.096,18.54 -7.754,17.742C-7.412,16.945 -6.501,15.806 -5.02,14.324C-3.538,12.844 -1.564,11.626 0.901,10.674C3.366,9.721 5.862,9.265 8.39,9.306C13.817,9.431 18.54,11.502 22.56,15.521C26.578,19.539 28.63,24.295 28.711,29.783C28.795,35.273 26.831,40.022 22.823,44.031C18.814,48.039 13.937,49.625 8.188,48.785C2.438,47.946 -2.621,45.342 -6.992,40.971C-12.44,35.522 -15.413,29.007 -15.911,21.425C-16.346,14.858 -14.896,5.867 -11.561,-5.547C-11.188,-6.832 -10.695,-8.101 -10.085,-9.354C-9.473,-10.607 -9.007,-11.394 -8.686,-11.715" />

        </g>

        <g
   id="g16"
   transform="matrix(1,0,0,1,73.735,50.125)">
            <path
   id="path14"
   style="fill:rgb(35,31,32);fill-rule:nonzero;"
   d="M0,36.902C3.646,33.173 5.945,29.816 6.898,26.834C8.017,23.311 7.146,20.121 4.288,17.262C2.672,15.646 0.891,14.611 -1.056,14.156C-6.38,12.933 -12.099,15.378 -18.209,21.489C-21.338,24.617 -23.379,27.9 -24.331,31.339C-25.491,35.44 -24.626,38.936 -21.736,41.826C-18.846,44.716 -15.175,45.426 -10.721,43.955C-7.054,42.733 -3.594,40.496 -0.342,37.244L0,36.902ZM9.741,-9.695C10.353,-8.441 10.845,-7.171 11.218,-5.888C14.553,5.527 16.003,14.518 15.568,21.085C15.071,28.667 12.099,35.182 6.65,40.631C2.279,45.002 -2.781,47.605 -8.529,48.445C-14.278,49.284 -19.158,47.699 -23.166,43.691C-27.175,39.682 -29.138,34.932 -29.054,29.444C-28.972,23.954 -26.921,19.2 -22.901,15.18C-18.883,11.162 -14.159,9.09 -8.731,8.965C-6.204,8.924 -3.709,9.381 -1.242,10.334C1.222,11.286 3.196,12.504 4.678,13.985C6.159,15.466 7.07,16.606 7.411,17.402C7.753,18.2 7.98,18.759 8.094,19.08C8.209,19.402 8.349,19.645 8.514,19.81C10.71,17.491 11.373,12.332 10.503,4.336C10.233,1.913 9.882,-0.428 9.446,-2.687C9.322,-3.391 8.872,-5.053 8.095,-7.675C7.318,-10.294 7.085,-11.761 7.396,-12.072C7.706,-12.382 8.022,-12.376 8.344,-12.055C8.664,-11.735 9.131,-10.948 9.741,-9.695" />

        </g>

        
        <g
   id="g24"
   transform="matrix(1,0,0,1,73.6959,71.545)">
            
        </g>

    </g>

</svg>
