<?xml version="1.0" encoding="UTF-8" standalone="no"?>
<svg
   xmlns:dc="http://purl.org/dc/elements/1.1/"
   xmlns:cc="http://creativecommons.org/ns#"
   xmlns:rdf="http://www.w3.org/1999/02/22-rdf-syntax-ns#"
   xmlns:svg="http://www.w3.org/2000/svg"
   xmlns="http://www.w3.org/2000/svg"
   xmlns:sodipodi="http://sodipodi.sourceforge.net/DTD/sodipodi-0.dtd"
   xmlns:inkscape="http://www.inkscape.org/namespaces/inkscape"
   inkscape:export-ydpi="342.35001"
   inkscape:export-xdpi="342.35001"
   inkscape:export-filename="/Users/egillespie/Pictures/Code Lab/lansing-codes-logo-blue.png"
   sodipodi:docname="lansing-codes-logo-blue.svg"
   inkscape:version="1.0beta1 (32d4812, 2019-09-19)"
   xml:space="preserve"
   style="enable-background:new -114 150 269.2 202;"
   viewBox="-100 100 300 300"
   y="0px"
   x="0px"
   id="Layer_1"
   version="1.1">
  <metadata
     id="metadata19">
    <rdf:RDF>
      <cc:Work
         rdf:about="">
        <dc:format>image/svg+xml</dc:format>
        <dc:type
           rdf:resource="http://purl.org/dc/dcmitype/StillImage" />
      </cc:Work>
    </rdf:RDF>
  </metadata>
  <defs
     id="defs17" />
  <sodipodi:namedview
     inkscape:document-rotation="0"
     inkscape:current-layer="Layer_1"
     inkscape:window-maximized="0"
     inkscape:window-y="23"
     inkscape:window-x="0"
     inkscape:cy="560"
     inkscape:cx="-12.857143"
     inkscape:zoom="0.35"
     showgrid="false"
     id="namedview15"
     inkscape:window-height="681"
     inkscape:window-width="1280"
     inkscape:pageshadow="2"
     inkscape:pageopacity="0"
     guidetolerance="10"
     gridtolerance="10"
     objecttolerance="10"
     borderopacity="1"
     bordercolor="#666666"
     pagecolor="#ffffff" />
  <style
     id="style3"
     type="text/css">
	.st0{fill:#3E79B9;}
	.st1{fill:#3F79BA;}
</style>
  <g
     transform="translate(-7.742859,7.62143)"
     id="g25">
    <path
       class="st0"
       d="m -17.057142,279.92857 c -0.3,-0.6 -0.7,-1.1 -1.2,-1.6 -0.7,-1 -9.2,-12.3 -12.6,-17.1 -2.3,-3.1 -4.7,-6.1 -6.9,-9.2 -2.3,-3.3 -4.7,-6.4 -7.3,-10.2 0,-0.1 -0.1,-0.1 -0.1,-0.2 0,-0.1 0.1,-0.1 0.1,-0.2 2.6,-3.8 5,-7 7.3,-10.2 2.2,-3.1 4.6,-6.1 6.9,-9.2 3.4,-4.8 12,-16.2 12.6,-17.1 0.4,-0.5 0.8,-1 1.2,-1.6 0.4,-0.6 0.7,-1.2 1,-1.8 7.8999996,-14.9 -5.5,-25.1 -5.5,-25.1 -0.5,-0.4 -1.1,-0.8 -1.9,-1.1 -4.7,-1.7 -8.3,-0.7 -11.6,2.8 -1.2,1.3 -2.2,2.7 -3.3,4.1 -5.1,6.5 -9.7,13.4 -14.7,19.9 -4.2,5.5 -7.8,11.5 -12.1,16.9 -3,3.7 -9.8,14.4 -10.3,15.7 -0.8,2.3 -1.3,4.5 -1.4,6.5 v 0 c 0,0.1 0,0.3 0,0.4 0,0.1 0,0.3 0,0.4 v 0 c 0.1,2.1 0.5,4.2 1.4,6.5 0.5,1.3 7.3,12 10.3,15.7 4.3,5.4 7.9,11.4 12.1,16.9 5,6.5 9.6,13.4 14.7,19.9 1.1,1.4 2.1,2.8 3.3,4.1 3.3,3.5 6.9,4.5 11.6,2.8 0.7,-0.3 1.3,-0.6 1.9,-1.1 0,0 13.3999996,-10.1 5.5,-25.1 -0.3,-0.5 -0.6,-1.1 -1,-1.8 z"
       id="path5"
       inkscape:connector-curvature="0" />
    <path
       class="st0"
       d="m 132.54286,279.92857 c 0.3,-0.6 0.7,-1.1 1.2,-1.6 0.7,-1 9.2,-12.3 12.6,-17.1 2.3,-3.1 4.7,-6.1 6.9,-9.2 2.3,-3.3 4.7,-6.4 7.3,-10.2 0,-0.1 0.1,-0.1 0.1,-0.2 0,-0.1 -0.1,-0.1 -0.1,-0.2 -2.6,-3.8 -5,-7 -7.3,-10.2 -2.2,-3.1 -4.6,-6.1 -6.9,-9.2 -3.4,-4.8 -12,-16.2 -12.6,-17.1 -0.4,-0.5 -0.8,-1 -1.2,-1.6 -0.4,-0.6 -0.7,-1.2 -1,-1.8 -7.9,-14.9 5.5,-25.1 5.5,-25.1 0.5,-0.4 1.1,-0.8 1.9,-1.1 4.7,-1.7 8.3,-0.7 11.6,2.8 1.2,1.3 2.2,2.7 3.3,4.1 5.1,6.5 9.7,13.4 14.7,19.9 4.2,5.5 7.8,11.5 12.1,16.9 3,3.7 9.8,14.4 10.3,15.7 0.8,2.3 1.3,4.5 1.4,6.5 v 0 c 0,0.1 0,0.3 0,0.4 0,0.1 0,0.3 0,0.4 v 0 c -0.1,2.1 -0.5,4.2 -1.4,6.5 -0.5,1.3 -7.3,12 -10.3,15.7 -4.3,5.4 -7.9,11.4 -12.1,16.9 -5,6.5 -9.6,13.4 -14.7,19.9 -1.1,1.4 -2.1,2.8 -3.3,4.1 -3.3,3.5 -6.9,4.5 -11.6,2.8 -0.7,-0.3 -1.3,-0.6 -1.9,-1.1 0,0 -13.4,-10.1 -5.5,-25.1 0.3,-0.5 0.6,-1.1 1,-1.8 z"
       id="path7"
       inkscape:connector-curvature="0" />
    <path
       class="st1"
       d="m 99.042858,234.42857 v 0 c -13.5,0 -27,0 -40.6,0 0,0 0,0 0,0 -0.2,0 -0.4,0 -0.5,0 0,0 0,0 0,0 -13.8,0 -27.3,0 -40.800001,0 v 0 c -4.3,0.2 -7.6999999,3.7 -7.6999999,8.1 0,4.4 3.3999999,7.9 7.6999999,8.1 0,0 0,0 0,0 h 0.2 v 22.6 h 12.000001 v -22.6 c 1.4,0 2.7,0 4,0 2.3,0 4.6,0 7,0 0,7.5 0,15 0,22.6 3.9,0 7.7,0 12,0 0.1,-7.4 0,-15 0,-22.7 1.8,0 3.6,0 5.4,0 0,0 0,0 0,0 0.2,0 0.4,0 0.5,0 0,0 0,0 0,0 1.8,0 3.6,0 5.4,0 0,7.7 -0.1,15.3 0,22.7 4.3,0 8.1,0 12,0 0,-7.6 0,-15.1 0,-22.6 2.4,0 4.7,0 7,0 1.3,0 2.7,0 4,0 v 22.6 h 12 v -22.6 h 0.2 c 0,0 0,0 0,0 4.300002,-0.2 7.700002,-3.7 7.700002,-8.1 0,-4.4 -3.3,-7.9 -7.500002,-8.1 z"
       id="path9"
       inkscape:connector-curvature="0" />
    <path
       class="st1"
       d="m 109.94286,327.22857 c 0,0 0,0 0,0 h -0.2 v -1.5 c 0,0 0,-0.1 0,-0.1 v -6.4 -14.6 -8 h 0.2 c 0,0 0,0 0,0 4.3,-0.2 7.7,-3.7 7.7,-8.1 0,-4.4 -3.4,-7.9 -7.7,-8.1 v 0 c -4.1,0 -8.1,0 -12.200002,0 v 0.1 c -13.4,0 -26.9,0 -40.3,0 -13.4,0 -26.8,0 -40.300001,0 v -0.1 c -4.1,0 -8.0999999,0 -12.1999998,0 v 0 c -4.30000003,0.2 -7.6999996,3.7 -7.6999996,8.1 0,4.4 3.39999957,7.9 7.6999996,8.1 0,0 0,0 0,0 h 0.2 v 8 14.6 6.4 c 0,0 0,0.1 0,0.1 v 1.5 h -0.2 c 0,0 0,0 0,0 -4.30000003,0.2 -7.6999996,3.7 -7.6999996,8.1 0,4.4 3.39999957,7.9 7.6999996,8.1 v 0 c 0,0 0.1,0 0.2,0 3.9999999,0 7.9999998,0 11.9999998,0 13.500001,0 26.900001,0 40.300001,0 13.4,0 26.8,0 40.3,0 4.000002,0 8.000002,0 12.000002,0 0,0 0.1,0 0.2,0 v 0 c 4.3,-0.2 7.7,-3.7 7.7,-8.1 0,-4.4 -3.4,-7.9 -7.7,-8.1 z m -81.600002,0.1 c -3.6,0 -7,0 -10.900001,0 0,-7.7 0,-15.1 0,-22.7 3.500001,0 7.000001,0 10.900001,0 0,7.4 0,15 0,22.7 z m 23.8,0 c -3.9,0 -7.7,0 -11.7,0 0,-7.5 0,-15 0,-22.8 1.7,0 3.7,-0.1 5.6,-0.1 2,0 4,0 6.1,0 0,7.6 0,15 0,22.9 z m 22.4,0 c -4,0 -7.8,0 -11.7,0 0,-7.9 0,-15.3 0,-22.9 2.1,0 4.1,0 6.1,0 1.9,0 3.9,0.1 5.6,0.1 0,7.8 0,15.3 0,22.8 z m 23,0 c -3.9,0 -7.3,0 -10.9,0 0,-7.7 0,-15.3 0,-22.7 3.9,0 7.4,0 10.9,0 0,7.6 0,15 0,22.7 z"
       id="path11"
       inkscape:connector-curvature="0" />
    <path
       class="st0"
       d="m 93.942858,211.52857 v 0 c -0.1,-0.1 -0.1,-0.1 0,0 -2,-8.1 -4,-16.1 -8.8,-22.9 -4.9,-6.9 -10.8,-12.8 -18.7,-16.3 0.4,-2.8 -0.7,-5.4 1.1,-7.8 -0.6,-2.1 -0.9,-4.3 -1.7,-6.3 -1,-2.4 -3,-3.9 -5.3,-5.2 0,-2.9 -0.1,-5.7 0,-8.5 0.1,-1.5 -0.5,-2.5 -1.8,-3.2 -0.1,0 -0.1,0 -0.2,0.1 -0.2,0 -0.3,0 -0.3,0 -1.3,0.7 -1.9,1.7 -1.8,3.2 0.1,2.8 0,5.6 0,8.5 -2.2,1.2 -4.3,2.8 -5.3,5.2 -0.8,2 -1.2,4.2 -1.7,6.3 1.8,2.3 0.7,5 1.1,7.8 -7.9,3.5 -13.8,9.4 -18.7,16.3 -4.9,6.8 -6.8,14.8 -8.8,22.8 0,0 0,0 0,0 -4.1,0 -7.500001,3.4 -7.500001,7.5 0,4.1 3.400001,7.5 7.500001,7.5 11.8,0 23.7,0 35.5,0 11.8,0 23.6,0 35.5,0 4.1,0 7.500002,-3.4 7.500002,-7.5 0,-4.1 -3.500002,-7.5 -7.600002,-7.5 z"
       id="path13"
       inkscape:connector-curvature="0" />
  </g>
</svg>
